HIERARCHY
ROOT Hips
{
	OFFSET 0.0000 0.0000 0.0000
	CHANNELS 6 Xposition Yposition Zposition Zrotation Xrotation Yrotation
	JOINT Spine1
	{
		OFFSET -0.0137 5.0038 -0.0537
		CHANNELS 3 Zrotation Xrotation Yrotation
		JOINT Spine2
		{
			OFFSET -0.0000 7.1253 -0.0298
			CHANNELS 3 Zrotation Xrotation Yrotation
			JOINT Chest
			{
				OFFSET -0.0000 7.5501 -0.8160
				CHANNELS 3 Zrotation Xrotation Yrotation
				JOINT Neck1
				{
					OFFSET -0.1817 26.3113 -0.5533
					CHANNELS 3 Zrotation Xrotation Yrotation
					JOINT Neck2
					{
						OFFSET -0.0000 7.7094 2.3026
						CHANNELS 3 Zrotation Xrotation Yrotation
						JOINT Head
						{
							OFFSET -0.0000 6.1289 1.9537
							CHANNELS 3 Zrotation Xrotation Yrotation
							JOINT Jaw
							{
								OFFSET 0.0026 0.4756 3.0949
								CHANNELS 3 Zrotation Xrotation Yrotation
								End Site
								{
									OFFSET 0.0 1.0 0.0
								}
							}
							JOINT LeftEye
							{
								OFFSET 3.2064 5.3802 7.5869
								CHANNELS 3 Zrotation Xrotation Yrotation
								End Site
								{
									OFFSET 0.0 1.0 0.0
								}
							}
							JOINT RightEye
							{
								OFFSET -3.2224 5.3619 7.5582
								CHANNELS 3 Zrotation Xrotation Yrotation
								End Site
								{
									OFFSET 0.0 1.0 0.0
								}
							}
						}
					}
				}
				JOINT LeftShoulder
				{
					OFFSET 1.6217 23.2372 5.1134
					CHANNELS 3 Zrotation Xrotation Yrotation
					JOINT LeftArm
					{
						OFFSET 14.9198 0.0000 -5.5023
						CHANNELS 3 Zrotation Xrotation Yrotation
						JOINT LeftForeArm
						{
							OFFSET 28.7393 0.0000 -0.0026
							CHANNELS 3 Zrotation Xrotation Yrotation
							JOINT LeftHand
							{
								OFFSET 27.0940 -0.0000 0.0026
								CHANNELS 3 Zrotation Xrotation Yrotation
								JOINT LeftHandThumbEnd
								{
									OFFSET 12.2686 -3.2202 4.8331
									CHANNELS 3 Zrotation Xrotation Yrotation
									End Site
									{
										OFFSET 0.0 1.0 0.0
									}
								}
								JOINT LeftHandMiddleEnd
								{
									OFFSET 19.0120 -0.3129 -0.0340
									CHANNELS 3 Zrotation Xrotation Yrotation
									End Site
									{
										OFFSET 0.0 1.0 0.0
									}
								}
							}
						}
					}
				}
				JOINT RightShoulder
				{
					OFFSET -1.3801 23.1803 5.2142
					CHANNELS 3 Zrotation Xrotation Yrotation
					JOINT RightArm
					{
						OFFSET -15.0372 0.0000 -5.5456
						CHANNELS 3 Zrotation Xrotation Yrotation
						JOINT RightForeArm
						{
							OFFSET -28.7366 0.0000 -0.0026
							CHANNELS 3 Zrotation Xrotation Yrotation
							JOINT RightHand
							{
								OFFSET -27.1336 -0.0000 0.0026
								CHANNELS 3 Zrotation Xrotation Yrotation
								JOINT RightHandThumbEnd
								{
									OFFSET -12.2642 -3.2115 4.8040
									CHANNELS 3 Zrotation Xrotation Yrotation
									End Site
									{
										OFFSET 0.0 1.0 0.0
									}
								}
								JOINT RightHandMiddleEnd
								{
									OFFSET -19.0006 -0.3066 -0.0316
									CHANNELS 3 Zrotation Xrotation Yrotation
									End Site
									{
										OFFSET 0.0 1.0 0.0
									}
								}
							}
						}
					}
				}
			}
		}
	}
	JOINT LeftLeg
	{
		OFFSET 10.0432 -8.4345 2.5957
		CHANNELS 3 Zrotation Xrotation Yrotation
		JOINT LeftShin
		{
			OFFSET -0.0000 -43.2218 -0.8029
			CHANNELS 3 Zrotation Xrotation Yrotation
			JOINT LeftFoot
			{
				OFFSET 0.0000 -42.1551 -3.4815
				CHANNELS 3 Zrotation Xrotation Yrotation
				JOINT LeftToeBase
				{
					OFFSET 0.0000 -5.0595 13.2315
					CHANNELS 3 Zrotation Xrotation Yrotation
					End Site
					{
						OFFSET 0.0 1.0 0.0
					}
				}
			}
		}
	}
	JOINT RightLeg
	{
		OFFSET -10.0473 -8.2953 2.6203
		CHANNELS 3 Zrotation Xrotation Yrotation
		JOINT RightShin
		{
			OFFSET 0.0000 -43.3622 -0.8056
			CHANNELS 3 Zrotation Xrotation Yrotation
			JOINT RightFoot
			{
				OFFSET 0.0000 -42.1174 -3.4784
				CHANNELS 3 Zrotation Xrotation Yrotation
				JOINT RightToeBase
				{
					OFFSET -0.0000 -5.0796 13.2842
					CHANNELS 3 Zrotation Xrotation Yrotation
					End Site
					{
						OFFSET 0.0 1.0 0.0
					}
				}
			}
		}
	}
}
MOTION
Frames: 6
Frame Time: 0.033333
-4.1968 94.2197 224.9913 -0.0752 29.2347 -11.5332 -3.0660 26.6542 -1.2197 -1.5742 4.7651 -0.2174 -1.3691 23.0509 -0.2799 5.4141 18.3561 3.3551 -1.2402 -4.0117 0.7007 -1.8221 -4.5010 -1.4528 -0.1560 -0.2492 -0.0100 0.5794 -10.9349 -3.8204 -0.8889 -11.0993 3.8726 17.0326 13.8506 -18.5527 -37.7708 -54.0579 -30.2191 -0.2242 0.3905 -36.5294 24.1868 -3.8765 8.6782 -15.3132 10.7126 15.1382 -59.9108 2.0898 1.7864 -5.1252 10.6584 32.5725 31.6995 -43.5488 27.3246 -0.2422 0.6733 35.2390 -2.7034 8.3564 0.4356 15.9856 7.5949 -16.3999 50.8941 -3.3942 -5.0742 -4.9315 -60.8010 18.7933 -0.5689 31.1643 -0.5751 -5.5443 1.2854 -1.6248 1.6701 0.2111 -2.0078 -7.4949 -58.2526 -7.1248 0.5770 30.6787 1.0922 12.1330 -5.0494 14.4377 -1.4306 -0.5568 1.1252
-4.4098 93.9479 224.8287 0.4184 32.7466 -10.7563 -3.0571 27.2353 -1.4151 -1.5917 5.0979 -0.0810 -1.4602 23.1286 -0.4517 4.3244 18.1873 3.5908 -0.9107 -4.0393 0.0608 -1.7985 -3.1525 -2.2955 -0.1707 -0.2805 -0.0286 0.5776 -10.9316 -3.8344 -0.9181 -11.0918 3.8629 17.2576 12.8147 -17.1943 -29.9219 -50.0922 -38.5073 -0.4826 0.7998 -39.1459 21.6480 3.7158 12.2741 -15.6985 10.4047 15.1942 -60.0026 1.9931 1.7383 -6.0655 10.0318 32.7940 28.7814 -45.9649 28.2952 -0.1750 0.7209 35.5671 -4.1694 9.5500 -0.7567 15.9920 7.5107 -16.3802 50.7877 -3.3373 -5.2748 -7.1674 -64.3713 19.9240 -0.5638 30.8491 -0.5843 -5.5657 1.9717 -1.1694 1.6761 0.4288 -1.9706 -8.0448 -62.3407 -6.4706 0.5215 31.5772 1.0044 11.8553 -5.1547 13.5981 -1.4334 -0.3073 1.0959
-4.5656 93.6815 224.8772 0.9348 35.5029 -10.0437 -3.0645 27.7414 -1.5915 -1.6133 5.3922 0.0132 -1.6302 23.2418 -0.7407 3.4192 18.2820 3.6065 -0.7146 -4.0396 -0.4557 -1.7402 -1.7901 -3.0641 -0.1579 -0.3100 -0.0405 0.5860 -10.9116 -3.8382 -0.8998 -11.0504 3.8438 17.2612 12.0543 -15.9493 -25.4400 -46.8602 -43.0171 -0.7426 1.2808 -42.4252 19.7250 9.1957 14.1522 -15.8342 10.2760 15.3420 -60.1837 1.8976 1.7681 -6.9956 9.3715 32.5325 25.6576 -47.1015 30.6880 -0.1051 0.7740 36.2050 -4.6007 10.8520 -1.8322 16.0723 7.4716 -16.4182 50.7346 -3.3554 -5.4467 -9.5041 -67.1620 21.4121 -0.5567 30.8737 -0.5892 -5.6615 2.3282 -0.9070 1.6805 0.6800 -1.9308 -9.1893 -65.5650 -5.2930 0.4700 32.5221 0.9090 11.8314 -5.3952 12.7681 -1.4326 -0.1487 1.0784
-4.6581 93.3830 224.9980 1.3179 37.5358 -9.4903 -3.1080 28.1812 -1.7204 -1.6008 5.6266 0.0111 -1.9269 23.4073 -1.1652 2.7601 18.5315 3.4960 -0.6311 -4.0248 -0.9283 -1.8265 -0.5975 -3.7585 -0.1170 -0.3366 -0.0387 0.6214 -10.8932 -3.8308 -0.8513 -10.9990 3.8285 17.1476 11.6326 -15.1888 -22.9630 -44.8278 -44.8517 -0.9320 1.6489 -45.0929 18.5919 12.4261 14.9356 -15.9178 10.3248 15.4527 -60.4313 1.8420 1.6725 -7.8245 8.7579 31.9905 22.4649 -47.2183 34.1420 -0.1081 0.8636 36.7826 -4.4376 12.1884 -2.8250 16.1550 7.4737 -16.4386 50.7373 -3.3371 -5.5309 -11.5530 -69.4097 22.8830 -0.5527 31.3717 -0.6070 -5.8195 2.3602 -0.6949 1.6838 0.9187 -1.9089 -10.6498 -68.0999 -3.8039 0.4404 33.6793 0.8444 11.9457 -5.7554 12.1180 -1.4351 -0.0314 1.0709
-4.7551 93.0435 225.1568 1.5272 38.8949 -9.1126 -3.2132 28.5276 -1.8307 -1.5908 5.7832 -0.1119 -2.2755 23.6341 -1.6656 2.3990 18.8408 3.3109 -0.6008 -4.0083 -1.3238 -2.1853 0.3390 -4.3753 -0.0511 -0.3599 -0.0176 0.6962 -10.9046 -3.8251 -0.7926 -10.9720 3.8429 16.7869 11.5712 -15.2136 -21.4855 -43.8851 -44.8566 -0.9362 1.8057 -46.3897 18.7716 14.0356 15.3629 -16.0139 10.3158 15.4874 -60.6253 1.7872 1.5928 -8.3761 8.2702 31.3984 19.2468 -46.7233 38.2577 -0.2791 1.0323 36.8678 -3.9937 13.5718 -3.5952 16.1737 7.4803 -16.4249 50.8631 -3.2966 -5.5218 -12.9163 -71.2330 23.8761 -0.5476 32.3429 -0.6084 -5.9951 2.0714 -0.4918 1.6829 1.1030 -1.9033 -12.1194 -69.9856 -2.2521 0.4310 34.9609 0.7782 12.0140 -6.2550 11.6396 -1.4371 0.0767 1.0981
-4.8065 92.6681 225.3978 1.5663 39.6628 -8.8711 -3.3636 28.7615 -1.9009 -1.5898 5.8850 -0.3384 -2.6773 23.9564 -2.2395 2.2146 19.1109 3.0598 -0.5927 -4.0056 -1.6409 -2.7817 1.1760 -4.9445 -0.0024 -0.3766 0.0097 0.7786 -10.9093 -3.8185 -0.7771 -10.9411 3.8749 15.9906 11.7740 -16.0558 -20.1922 -43.3683 -43.8294 -0.6915 1.7906 -46.3477 20.1134 15.1858 15.9400 -16.1463 10.2574 15.4340 -60.6644 1.7068 1.5581 -8.5567 7.9232 30.8114 15.9526 -45.7076 42.7522 -0.4967 1.1688 36.4501 -3.5892 14.9480 -4.1484 16.0900 7.4828 -16.3665 50.9983 -3.2744 -5.4751 -13.4601 -72.6775 24.2343 -0.5304 33.6329 -0.6049 -6.2354 1.5374 -0.3230 1.6765 1.2045 -1.9479 -13.6485 -71.2339 -0.5491 0.4490 36.3213 0.7559 12.0505 -6.8912 11.1841 -1.4413 0.1876 1.1576
